<?xml version="1.0" encoding="utf-8"?>
<!-- Generator: Adobe Illustrator 17.0.0, SVG Export Plug-In . SVG Version: 6.00 Build 0)  -->
<!DOCTYPE svg PUBLIC "-//W3C//DTD SVG 1.1//EN" "http://www.w3.org/Graphics/SVG/1.1/DTD/svg11.dtd">
<svg version="1.1" id="Layer_1" xmlns="http://www.w3.org/2000/svg" xmlns:xlink="http://www.w3.org/1999/xlink" x="0px" y="0px"
	 width="238px" height="241px" viewBox="0 0 238 241" enable-background="new 0 0 238 241" xml:space="preserve">
<g>
	<path fill="#467C9D" d="M45.13,116.322c-1.639,0-3.428,0.805-3.428,2.713c0,1.371,0.745,2.116,1.789,2.742l4.829,2.862
		c1.967,1.163,3.04,2.981,3.04,5.336c0,3.309-2.623,5.395-6.2,5.395c-3.666,0-5.962-2.504-5.962-5.604
		c0-0.596,0.477-1.133,1.133-1.133c0.596,0,1.133,0.537,1.133,1.133c0,2.146,1.61,3.249,3.666,3.249
		c2.355,0,3.935-1.073,3.935-3.011c0-1.61-0.775-2.683-2.057-3.458l-4.859-2.862c-1.639-0.984-2.742-2.653-2.742-4.71
		c0-2.921,2.295-5.008,5.723-5.008c3.547,0,5.932,2.116,5.932,5.306c0,0.596-0.566,1.133-1.133,1.133
		c-0.596,0-1.163-0.447-1.163-1.133C48.767,117.455,47.187,116.322,45.13,116.322z"/>
	<path fill="#467C9D" d="M70.11,133.969c0.149,0.656-0.268,1.282-0.864,1.401c-0.566,0.119-1.222-0.209-1.401-0.894l-1.282-5.276
		h-6.796l-1.282,5.276c-0.179,0.745-0.745,1.013-1.341,0.894c-0.745-0.149-1.073-0.745-0.924-1.401l4.62-19.704h4.591L70.11,133.969
		z M63.671,116.531h-1.013l-2.385,10.373h5.753L63.671,116.531z"/>
	<path fill="#467C9D" d="M85.58,113.789c0.626,0,1.163,0.477,1.163,1.163v20.061h-3.547L77.68,118.26v16.097
		c0,0.626-0.537,1.192-1.163,1.192c-0.626,0-1.163-0.566-1.163-1.192v-20.091h3.428l5.634,17.08v-16.395
		C84.417,114.266,84.954,113.789,85.58,113.789z"/>
	<path fill="#467C9D" d="M97.831,116.591h-4.441c-0.596,0-1.163-0.537-1.163-1.133c0-0.626,0.566-1.192,1.163-1.192h11.089
		c0.596,0,1.163,0.566,1.163,1.192c0,0.596-0.566,1.133-1.163,1.133h-4.412v17.736c0,0.686-0.477,1.163-1.133,1.163
		c-0.686,0-1.103-0.477-1.103-1.163V116.591z"/>
	<path fill="#467C9D" d="M112.645,114.266h8.287c0.596,0,1.133,0.566,1.133,1.192c0,0.656-0.537,1.103-1.133,1.103h-3.04v16.126
		h3.04c0.596,0,1.133,0.566,1.133,1.192c0,0.656-0.537,1.103-1.133,1.103h-8.287c-0.656,0-1.103-0.447-1.103-1.103
		c0-0.626,0.447-1.192,1.103-1.192h3.04v-16.126h-3.04c-0.656,0-1.103-0.447-1.103-1.103
		C111.542,114.832,111.989,114.266,112.645,114.266z"/>
	<path fill="#467C9D" d="M141.649,133.969c0.149,0.656-0.268,1.282-0.864,1.401c-0.566,0.119-1.222-0.209-1.401-0.894l-1.282-5.276
		h-6.796l-1.282,5.276c-0.179,0.745-0.745,1.013-1.341,0.894c-0.745-0.149-1.073-0.745-0.924-1.401l4.62-19.704h4.591
		L141.649,133.969z M135.21,116.531h-1.013l-2.385,10.373h5.753L135.21,116.531z"/>
	<path fill="#467C9D" d="M152.588,116.322c-1.103,0-3.607,0.477-3.607,3.339v9.986c0,2.862,2.504,3.309,3.607,3.309
		s3.577-0.477,3.577-3.309v-3.845h-3.637c-0.596,0-1.103-0.537-1.103-1.163c0-0.596,0.507-1.103,1.103-1.103h5.932v6.141
		c0,1.878-1.282,5.574-5.992,5.574c-4.62,0-5.783-3.696-5.783-5.604v-10.046c0-1.789,1.192-5.544,5.902-5.544
		c4.62,0,5.783,3.726,5.783,5.574c0,0.596-0.537,1.133-1.133,1.133c-0.626,0-1.103-0.537-1.103-1.133
		C156.135,116.799,153.691,116.322,152.588,116.322z"/>
	<path fill="#467C9D" d="M170.353,135.251c-4.62,0-5.783-3.696-5.783-5.604v-10.046c0-1.789,1.192-5.544,5.902-5.544
		c4.62,0,5.872,3.756,5.872,5.574v10.046C176.345,131.555,175.063,135.251,170.353,135.251z M174.049,119.661
		c0-2.832-2.474-3.339-3.577-3.339s-3.607,0.477-3.607,3.339v9.986c0,2.862,2.504,3.309,3.607,3.309s3.547-0.477,3.547-3.309
		L174.049,119.661z"/>
	<path fill="#467C9D" d="M49.959,160.1c0.626,0,1.163,0.566,1.163,1.163c0,1.938-1.222,5.634-5.932,5.634
		c-4.62,0-5.783-3.696-5.783-5.604v-10.046c0-1.789,1.192-5.544,5.902-5.544c4.501,0,5.783,3.517,5.783,5.515
		c0,0.656-0.537,1.103-1.133,1.103c-0.626,0-1.103-0.447-1.103-1.103c-0.03-2.772-2.474-3.249-3.547-3.249
		c-1.103,0-3.607,0.477-3.607,3.339v9.986c0,2.862,2.504,3.309,3.607,3.309s3.547-0.477,3.547-3.339
		C48.857,160.666,49.333,160.1,49.959,160.1z"/>
	<path fill="#467C9D" d="M57.113,146.596c0-0.686,0.417-1.163,1.103-1.163c0.656,0,1.163,0.477,1.163,1.163v8.019h7.571v-8.019
		c0-0.686,0.447-1.163,1.133-1.163c0.656,0,1.133,0.477,1.133,1.163v19.376c0,0.686-0.477,1.163-1.133,1.163
		c-0.686,0-1.133-0.477-1.133-1.163v-9.092h-7.571v9.092c0,0.686-0.507,1.163-1.163,1.163c-0.686,0-1.103-0.477-1.103-1.163V146.596
		z"/>
	<path fill="#467C9D" d="M76.875,145.911h8.287c0.596,0,1.133,0.566,1.133,1.192c0,0.656-0.537,1.103-1.133,1.103h-3.04v16.126h3.04
		c0.596,0,1.133,0.566,1.133,1.192c0,0.656-0.537,1.103-1.133,1.103h-8.287c-0.656,0-1.103-0.447-1.103-1.103
		c0-0.626,0.447-1.192,1.103-1.192h3.04v-16.126h-3.04c-0.656,0-1.103-0.447-1.103-1.103
		C75.773,146.477,76.22,145.911,76.875,145.911z"/>
	<path fill="#467C9D" d="M93.061,166.598v-20.002c0-0.686,0.447-1.163,1.133-1.163c0.596,0,1.163,0.477,1.163,1.163v17.706h8.257
		c0.626,0,1.163,0.566,1.163,1.192c0,0.686-0.537,1.103-1.163,1.103H93.061z"/>
	<path fill="#467C9D" d="M113.271,164.362h8.257c0.596,0,1.133,0.566,1.133,1.163s-0.537,1.103-1.133,1.103h-10.582v-20.717h10.582
		c0.596,0,1.133,0.566,1.133,1.163c0,0.566-0.537,1.103-1.133,1.103h-8.287v6.379h7.631c0.596,0,1.133,0.537,1.133,1.133
		c0,0.537-0.537,1.133-1.133,1.133h-7.601V164.362z"/>
</g>
<g>
	<path fill="#EA5F69" d="M41.378,179.375h10.046v2.027l-4.263,6.409c4.084,0.656,4.769,3.845,4.769,5.366v1.52
		c0,1.908-1.163,5.723-5.813,5.723c-4.74,0-5.962-3.666-5.962-5.723c0-0.596,0.447-1.163,1.133-1.163
		c0.596,0,1.163,0.566,1.163,1.163c0,2.921,2.444,3.428,3.547,3.428c1.103,0,3.637-0.566,3.637-3.428v-1.461
		c0-2.802-2.564-3.279-3.637-3.279h-1.58v-1.908l4.203-6.349h-7.244c-0.656,0-1.133-0.537-1.133-1.133
		C40.245,179.941,40.722,179.375,41.378,179.375z"/>
	<path fill="#EA5F69" d="M60.336,179.405h4.68v18.392h3.666c0.626,0,1.163,0.566,1.163,1.192c0,0.686-0.537,1.103-1.163,1.103
		h-9.509c-0.686,0-1.133-0.417-1.133-1.103c0-0.626,0.447-1.192,1.192-1.192h3.577V181.7h-2.474c-0.715,0-1.192-0.447-1.192-1.103
		C59.143,179.971,59.62,179.405,60.336,179.405z"/>
	<path fill="#EA5F69" d="M95.509,193.653c0.656,0,1.163,0.507,1.163,1.163c0,2.742,1.818,3.279,3.04,3.279
		c1.282,0,3.07-0.537,3.07-3.07V181.7h-5.604c-0.656,0-1.103-0.447-1.103-1.103c0-0.626,0.447-1.192,1.103-1.192h7.84v15.441
		c0,3.488-1.967,5.544-5.336,5.544c-3.309,0-5.276-2.116-5.276-5.574C94.406,194.16,94.853,193.653,95.509,193.653z"/>
	<path fill="#EA5F69" d="M122.306,178.928c0.626,0,1.163,0.477,1.163,1.163v14.725c0,1.878-1.282,5.574-5.992,5.574
		c-4.62,0-5.783-3.696-5.783-5.604V180.09c0-0.686,0.447-1.163,1.133-1.163c0.596,0,1.163,0.477,1.163,1.163v14.696
		c0,2.862,2.504,3.309,3.607,3.309s3.577-0.477,3.577-3.309V180.09C121.174,179.405,121.651,178.928,122.306,178.928z"/>
	<path fill="#EA5F69" d="M129.609,200.092V180.09c0-0.686,0.447-1.163,1.133-1.163c0.596,0,1.163,0.477,1.163,1.163v17.706h8.257
		c0.626,0,1.163,0.566,1.163,1.192c0,0.686-0.537,1.103-1.163,1.103H129.609z"/>
	<path fill="#EA5F69" d="M152.233,192.64l-4.918-11.923c-0.238-0.596,0.03-1.312,0.596-1.55c0.626-0.268,1.312,0,1.58,0.656
		l3.875,9.628l3.816-9.628c0.238-0.626,1.014-0.894,1.55-0.656c0.656,0.298,0.894,0.894,0.626,1.55l-4.889,11.923v6.826
		c0,0.686-0.477,1.163-1.133,1.163c-0.686,0-1.103-0.477-1.103-1.163V192.64z"/>
	<path fill="#EA5F69" d="M45.968,232.035c-4.62,0-5.515-3.666-5.515-5.604v-10.046c0-1.818,0.924-5.544,5.634-5.544
		c4.62,0,5.544,3.696,5.544,5.574v10.046C51.632,228.369,50.678,232.035,45.968,232.035z M49.396,216.475
		c0-2.832-2.206-3.339-3.309-3.339s-3.339,0.507-3.339,3.339v9.926c0,2.862,2.236,3.309,3.339,3.309s3.279-0.447,3.279-3.309
		L49.396,216.475z"/>
	<path fill="#EA5F69" d="M63.853,232.035c-4.769,0-5.992-3.875-5.992-5.813v-0.477c0-1.133,0.268-3.279,2.265-4.591
		c-1.789-1.222-2.027-3.309-2.027-4.412v-0.358c0-1.789,1.163-5.544,5.872-5.544c4.65,0,5.813,3.637,5.813,5.574v0.358
		c0,1.043-0.596,3.07-2.206,4.322c1.789,1.371,2.415,3.368,2.415,4.68v0.477C69.994,228.19,68.742,232.035,63.853,232.035z
		 M67.758,225.835c0-2.444-1.729-3.488-3.905-3.488c-2.057,0-3.666,1.282-3.666,3.488v0.328c0,3.04,2.623,3.488,3.816,3.488
		c1.163,0,3.756-0.447,3.756-3.488V225.835z M67.549,216.475c0-2.832-2.474-3.339-3.577-3.339s-3.577,0.477-3.577,3.339v0.238
		c0,2.176,1.58,3.279,3.607,3.279c1.967,0,3.547-1.133,3.547-3.279V216.475z"/>
	<path fill="#EA5F69" d="M106.657,230.753c0.149,0.656-0.268,1.282-0.864,1.401c-0.566,0.119-1.222-0.209-1.401-0.894l-1.282-5.276
		h-6.796l-1.282,5.276c-0.179,0.745-0.745,1.013-1.341,0.894c-0.745-0.149-1.073-0.745-0.924-1.401l4.62-19.704h4.591
		L106.657,230.753z M100.218,213.315h-1.013l-2.385,10.373h5.753L100.218,213.315z"/>
	<path fill="#EA5F69" d="M122.306,210.573c0.626,0,1.163,0.477,1.163,1.163v14.725c0,1.878-1.282,5.574-5.992,5.574
		c-4.62,0-5.783-3.696-5.783-5.604v-14.696c0-0.686,0.447-1.163,1.133-1.163c0.596,0,1.163,0.477,1.163,1.163v14.696
		c0,2.862,2.504,3.309,3.607,3.309s3.577-0.477,3.577-3.309v-14.696C121.174,211.05,121.651,210.573,122.306,210.573z"/>
	<path fill="#EA5F69" d="M135.481,213.107c-1.103,0-3.607,0.477-3.607,3.339v9.986c0,2.862,2.504,3.309,3.607,3.309
		s3.577-0.477,3.577-3.309v-3.845h-3.637c-0.596,0-1.103-0.537-1.103-1.163c0-0.596,0.507-1.103,1.103-1.103h5.932v6.141
		c0,1.878-1.282,5.574-5.992,5.574c-4.62,0-5.783-3.696-5.783-5.604v-10.046c0-1.789,1.192-5.544,5.902-5.544
		c4.62,0,5.783,3.726,5.783,5.574c0,0.596-0.537,1.133-1.133,1.133c-0.626,0-1.103-0.537-1.103-1.133
		C139.029,213.584,136.584,213.107,135.481,213.107z"/>
	<path fill="#EA5F69" d="M158.076,210.573c0.626,0,1.163,0.477,1.163,1.163v14.725c0,1.878-1.282,5.574-5.992,5.574
		c-4.62,0-5.783-3.696-5.783-5.604v-14.696c0-0.686,0.447-1.163,1.133-1.163c0.596,0,1.163,0.477,1.163,1.163v14.696
		c0,2.862,2.504,3.309,3.607,3.309s3.577-0.477,3.577-3.309v-14.696C156.943,211.05,157.42,210.573,158.076,210.573z"/>
	<path fill="#EA5F69" d="M171.102,213.107c-1.639,0-3.428,0.805-3.428,2.713c0,1.371,0.745,2.116,1.789,2.742l4.829,2.862
		c1.967,1.163,3.04,2.981,3.04,5.336c0,3.309-2.623,5.395-6.2,5.395c-3.666,0-5.962-2.504-5.962-5.604
		c0-0.596,0.477-1.133,1.133-1.133c0.596,0,1.133,0.537,1.133,1.133c0,2.146,1.61,3.249,3.666,3.249
		c2.355,0,3.935-1.073,3.935-3.011c0-1.61-0.775-2.683-2.057-3.458l-4.859-2.862c-1.639-0.984-2.742-2.653-2.742-4.71
		c0-2.921,2.295-5.008,5.723-5.008c3.547,0,5.932,2.116,5.932,5.306c0,0.596-0.566,1.133-1.133,1.133
		c-0.596,0-1.163-0.447-1.163-1.133C174.738,214.239,173.158,213.107,171.102,213.107z"/>
	<path fill="#EA5F69" d="M188.032,213.375h-4.441c-0.596,0-1.163-0.537-1.163-1.133c0-0.626,0.566-1.192,1.163-1.192h11.089
		c0.596,0,1.163,0.566,1.163,1.192c0,0.596-0.566,1.133-1.163,1.133h-4.412v17.736c0,0.686-0.477,1.163-1.133,1.163
		c-0.686,0-1.103-0.477-1.103-1.163V213.375z"/>
</g>
<g>
	<path fill="#1C3557" d="M53.579,15.517c0.596,0,1.133,0.566,1.133,1.163c0,0.566-0.537,1.103-1.133,1.103h-8.287v6.439h7.631
		c0.596,0,1.133,0.537,1.133,1.133c0,0.537-0.537,1.133-1.133,1.133h-7.601v9.747h-2.325V15.517H53.579z"/>
	<path fill="#1C3557" d="M73.7,35.221c0.149,0.656-0.268,1.282-0.864,1.401c-0.566,0.119-1.222-0.209-1.401-0.894l-1.282-5.276
		h-6.796l-1.282,5.276c-0.179,0.745-0.745,1.013-1.341,0.894c-0.745-0.149-1.073-0.745-0.924-1.401l4.62-19.704h4.591L73.7,35.221z
		 M67.261,17.783h-1.013l-2.385,10.373h5.753L67.261,17.783z"/>
	<path fill="#1C3557" d="M84.996,36.234h-6.319V15.517h6.17c4.68,0,5.425,3.577,5.425,5.425v0.328c0,1.043-0.358,3.428-2.206,4.233
		c2.027,0.954,2.534,3.458,2.534,4.531v0.715C90.6,32.568,89.646,36.234,84.996,36.234z M87.977,20.943
		c0-2.802-2.057-3.16-3.13-3.16h-3.875v6.677h4.054c1.282,0,2.951-0.447,2.951-3.249V20.943z M88.305,30.064
		c0-2.862-1.908-3.309-3.16-3.309h-4.173v7.184h4.024c1.103,0,3.309-0.447,3.309-3.279V30.064z"/>
	<path fill="#1C3557" d="M98.917,15.517h4.68v18.392h3.666c0.626,0,1.163,0.566,1.163,1.192c0,0.686-0.537,1.103-1.163,1.103h-9.509
		c-0.686,0-1.133-0.417-1.133-1.103c0-0.626,0.447-1.192,1.192-1.192h3.577V17.813h-2.474c-0.715,0-1.192-0.447-1.192-1.103
		C97.724,16.084,98.201,15.517,98.917,15.517z"/>
	<path fill="#1C3557" d="M115.728,15.488h10.046v2.027l-4.263,6.409c4.084,0.656,4.769,3.845,4.769,5.366v1.52
		c0,1.908-1.163,5.723-5.813,5.723c-4.74,0-5.962-3.666-5.962-5.723c0-0.596,0.447-1.163,1.133-1.163
		c0.596,0,1.163,0.566,1.163,1.163c0,2.921,2.444,3.428,3.547,3.428s3.637-0.566,3.637-3.428v-1.461
		c0-2.802-2.564-3.279-3.637-3.279h-1.58v-1.908l4.203-6.349h-7.244c-0.656,0-1.133-0.537-1.133-1.133
		C114.596,16.054,115.072,15.488,115.728,15.488z"/>
	<path fill="#1C3557" d="M53.579,47.162c0.596,0,1.133,0.566,1.133,1.163c0,0.566-0.537,1.103-1.133,1.103h-8.287v6.439h7.631
		c0.596,0,1.133,0.537,1.133,1.133c0,0.537-0.537,1.133-1.133,1.133h-7.601v9.747h-2.325V47.162H53.579z"/>
	<path fill="#1C3557" d="M73.7,66.866c0.149,0.656-0.268,1.282-0.864,1.401c-0.566,0.119-1.222-0.209-1.401-0.894l-1.282-5.276
		h-6.796l-1.282,5.276c-0.179,0.745-0.745,1.013-1.341,0.894c-0.745-0.149-1.073-0.745-0.924-1.401l4.62-19.704h4.591L73.7,66.866z
		 M67.261,49.428h-1.013l-2.385,10.373h5.753L67.261,49.428z"/>
	<path fill="#1C3557" d="M84.996,67.88h-6.319V47.162h6.17c4.68,0,5.425,3.577,5.425,5.425v0.328c0,1.043-0.358,3.428-2.206,4.233
		c2.027,0.954,2.534,3.458,2.534,4.531v0.715C90.6,64.213,89.646,67.88,84.996,67.88z M87.977,52.588c0-2.802-2.057-3.16-3.13-3.16
		h-3.875v6.677h4.054c1.282,0,2.951-0.447,2.951-3.249V52.588z M88.305,61.709c0-2.862-1.908-3.309-3.16-3.309h-4.173v7.184h4.024
		c1.103,0,3.309-0.447,3.309-3.279V61.709z"/>
	<path fill="#1C3557" d="M102.255,59.205h-3.309v8.019c0,0.626-0.566,1.192-1.163,1.192c-0.626,0-1.163-0.566-1.163-1.192V47.162
		h6.17c4.68,0,5.604,3.666,5.604,5.485v0.984c0,1.58-0.775,4.292-3.726,5.336l3.398,7.84c0.268,0.656-0.119,1.282-0.596,1.49
		c-0.507,0.209-1.252,0-1.52-0.626L102.255,59.205z M106.071,52.737c0-2.802-2.176-3.309-3.279-3.309h-3.875v7.512h3.935
		c1.133,0,3.219-0.477,3.219-3.339V52.737z"/>
	<path fill="#1C3557" d="M116.235,47.162h8.287c0.596,0,1.133,0.566,1.133,1.192c0,0.656-0.537,1.103-1.133,1.103h-3.04v16.126h3.04
		c0.596,0,1.133,0.566,1.133,1.192c0,0.656-0.537,1.103-1.133,1.103h-8.287c-0.656,0-1.103-0.447-1.103-1.103
		c0-0.626,0.447-1.192,1.103-1.192h3.04V49.458h-3.04c-0.656,0-1.103-0.447-1.103-1.103
		C115.132,47.729,115.579,47.162,116.235,47.162z"/>
	<path fill="#1C3557" d="M142.973,61.351c0.626,0,1.163,0.566,1.163,1.163c0,1.938-1.222,5.634-5.932,5.634
		c-4.62,0-5.783-3.696-5.783-5.604V52.498c0-1.789,1.192-5.544,5.902-5.544c4.501,0,5.783,3.517,5.783,5.515
		c0,0.656-0.537,1.103-1.133,1.103c-0.626,0-1.103-0.447-1.103-1.103c-0.03-2.772-2.474-3.249-3.547-3.249
		c-1.103,0-3.607,0.477-3.607,3.339v9.986c0,2.862,2.504,3.309,3.607,3.309s3.547-0.477,3.547-3.339
		C141.87,61.918,142.347,61.351,142.973,61.351z"/>
	<path fill="#1C3557" d="M163.123,66.866c0.149,0.656-0.268,1.282-0.864,1.401c-0.566,0.119-1.222-0.209-1.401-0.894l-1.282-5.276
		h-6.796l-1.282,5.276c-0.179,0.745-0.745,1.013-1.341,0.894c-0.745-0.149-1.073-0.745-0.924-1.401l4.62-19.704h4.591
		L163.123,66.866z M156.685,49.428h-1.014l-2.385,10.373h5.753L156.685,49.428z"/>
	<path fill="#1C3557" d="M172.959,49.488h-4.441c-0.596,0-1.163-0.537-1.163-1.133c0-0.626,0.566-1.192,1.163-1.192h11.089
		c0.596,0,1.163,0.566,1.163,1.192c0,0.596-0.566,1.133-1.163,1.133h-4.412v17.736c0,0.686-0.477,1.163-1.133,1.163
		c-0.686,0-1.103-0.477-1.103-1.163V49.488z"/>
	<path fill="#1C3557" d="M187.774,47.162h8.287c0.596,0,1.133,0.566,1.133,1.192c0,0.656-0.537,1.103-1.133,1.103h-3.04v16.126h3.04
		c0.596,0,1.133,0.566,1.133,1.192c0,0.656-0.537,1.103-1.133,1.103h-8.287c-0.656,0-1.103-0.447-1.103-1.103
		c0-0.626,0.447-1.192,1.103-1.192h3.04V49.458h-3.04c-0.656,0-1.103-0.447-1.103-1.103
		C186.671,47.729,187.118,47.162,187.774,47.162z"/>
	<path fill="#1C3557" d="M214.363,46.686c0.626,0,1.163,0.477,1.163,1.163v20.061h-3.547l-5.515-16.752v16.097
		c0,0.626-0.537,1.192-1.163,1.192c-0.626,0-1.163-0.566-1.163-1.192V47.162h3.428l5.634,17.08V47.848
		C213.2,47.162,213.737,46.686,214.363,46.686z"/>
	<path fill="#1C3557" d="M227.716,49.219c-1.103,0-3.607,0.477-3.607,3.339v9.986c0,2.862,2.504,3.309,3.607,3.309
		s3.577-0.477,3.577-3.309v-3.845h-3.637c-0.596,0-1.103-0.537-1.103-1.163c0-0.596,0.507-1.103,1.103-1.103h5.932v6.141
		c0,1.878-1.282,5.574-5.992,5.574c-4.62,0-5.783-3.696-5.783-5.604V52.498c0-1.789,1.192-5.544,5.902-5.544
		c4.62,0,5.783,3.726,5.783,5.574c0,0.596-0.537,1.133-1.133,1.133c-0.626,0-1.103-0.537-1.103-1.133
		C231.264,49.696,228.819,49.219,227.716,49.219z"/>
	<path fill="#1C3557" d="M48.72,80.864c-1.639,0-3.428,0.805-3.428,2.713c0,1.371,0.745,2.116,1.789,2.742l4.829,2.862
		c1.967,1.163,3.04,2.981,3.04,5.336c0,3.309-2.623,5.395-6.2,5.395c-3.666,0-5.962-2.504-5.962-5.604
		c0-0.596,0.477-1.133,1.133-1.133c0.596,0,1.133,0.537,1.133,1.133c0,2.146,1.61,3.249,3.666,3.249
		c2.355,0,3.935-1.073,3.935-3.011c0-1.61-0.775-2.683-2.057-3.458l-4.859-2.862c-1.639-0.984-2.742-2.653-2.742-4.71
		c0-2.921,2.295-5.008,5.723-5.008c3.547,0,5.932,2.116,5.932,5.306c0,0.596-0.566,1.133-1.133,1.133
		c-0.596,0-1.163-0.447-1.163-1.133C52.357,81.997,50.777,80.864,48.72,80.864z"/>
	<path fill="#1C3557" d="M66.635,99.793c-4.62,0-5.783-3.696-5.783-5.604V84.143c0-1.789,1.192-5.544,5.902-5.544
		c4.62,0,5.872,3.756,5.872,5.574v10.046C72.627,96.097,71.345,99.793,66.635,99.793z M70.331,84.203
		c0-2.832-2.474-3.339-3.577-3.339s-3.607,0.477-3.607,3.339v9.986c0,2.862,2.504,3.309,3.607,3.309s3.547-0.477,3.547-3.309
		L70.331,84.203z"/>
	<path fill="#1C3557" d="M89.319,92.997c0.626,0,1.163,0.566,1.163,1.163c0,1.938-1.222,5.634-5.932,5.634
		c-4.62,0-5.783-3.696-5.783-5.604V84.143c0-1.789,1.192-5.544,5.902-5.544c4.501,0,5.783,3.517,5.783,5.515
		c0,0.656-0.537,1.103-1.133,1.103c-0.626,0-1.103-0.447-1.103-1.103c-0.03-2.772-2.474-3.249-3.547-3.249
		c-1.103,0-3.607,0.477-3.607,3.339v9.986c0,2.862,2.504,3.309,3.607,3.309s3.547-0.477,3.547-3.339
		C88.216,93.563,88.693,92.997,89.319,92.997z"/>
	<path fill="#1C3557" d="M98.35,78.808h8.287c0.596,0,1.133,0.566,1.133,1.192c0,0.656-0.537,1.103-1.133,1.103h-3.04v16.126h3.04
		c0.596,0,1.133,0.566,1.133,1.192c0,0.656-0.537,1.103-1.133,1.103H98.35c-0.656,0-1.103-0.447-1.103-1.103
		c0-0.626,0.447-1.192,1.103-1.192h3.04V81.103h-3.04c-0.656,0-1.103-0.447-1.103-1.103C97.247,79.374,97.694,78.808,98.35,78.808z"
		/>
	<path fill="#1C3557" d="M116.861,97.259h8.257c0.596,0,1.133,0.566,1.133,1.163c0,0.596-0.537,1.103-1.133,1.103h-10.582V78.808
		h10.582c0.596,0,1.133,0.566,1.133,1.163c0,0.566-0.537,1.103-1.133,1.103h-8.287v6.379h7.631c0.596,0,1.133,0.537,1.133,1.133
		c0,0.537-0.537,1.133-1.133,1.133h-7.601V97.259z"/>
	<path fill="#1C3557" d="M137.19,81.133h-4.441c-0.596,0-1.163-0.537-1.163-1.133c0-0.626,0.566-1.192,1.163-1.192h11.089
		c0.596,0,1.163,0.566,1.163,1.192c0,0.596-0.566,1.133-1.163,1.133h-4.412v17.736c0,0.686-0.477,1.163-1.133,1.163
		c-0.686,0-1.103-0.477-1.103-1.163V81.133z"/>
	<path fill="#1C3557" d="M155.045,92.043l-4.918-11.923c-0.238-0.596,0.03-1.312,0.596-1.55c0.626-0.268,1.312,0,1.58,0.656
		l3.875,9.628l3.816-9.628c0.238-0.626,1.013-0.894,1.55-0.656c0.656,0.298,0.894,0.894,0.626,1.55l-4.889,11.923v6.826
		c0,0.686-0.477,1.163-1.133,1.163c-0.686,0-1.103-0.477-1.103-1.163V92.043z"/>
</g>
<path fill="#1C3557" d="M14.846,28.567c-1.818,0-3.279-1.52-3.279-3.309c0-1.789,1.461-3.309,3.279-3.309
	c1.789,0,3.309,1.52,3.309,3.309C18.154,27.047,16.634,28.567,14.846,28.567z"/>
<path fill="#EA5F69" d="M6.902,188.099H22.79c0.388,0,0.626,0.238,0.626,0.626c0,0.388-0.238,0.626-0.626,0.626H6.902
	c-0.388,0-0.596-0.238-0.596-0.626C6.306,188.337,6.514,188.099,6.902,188.099z"/>
<path fill="#467C9D" d="M17.104,120.424l-6.409-6.468c-0.268-0.298-0.268-0.835,0-1.103c0.328-0.328,0.805-0.268,1.073,0.03
	l7.571,7.542l-7.661,7.631c-0.268,0.298-0.745,0.358-1.073,0.03c-0.298-0.268-0.298-0.805,0-1.103L17.104,120.424z"/>
</svg>
